:SAMPLES-PER-SECOND 30
:FULLY-SPECIFIED
:DEGREES
480
root  13.0621 40.5818 9.4775 179.066 66.0671 177.24
RightUpLeg  -2.44899 -13.0923 -8.96013
RightLeg  10.4218 -28.7069 2.02466
RightFoot  -3.32507 -0.182171 2.20945
RightToes  0.000481921 0.542163 -0.142578
Spine  10.7724 -2.3348 -8.07534
Spine1  -1.95766 -5.2452 13.4419
HEad  10.1754 -10.7832 1.46183
LeftShoulder1  6.46535 -10.5665 -39.7101
LeftArm  4.58458 4.57253 -38.4408
LeftForeArm  176.808 -57.5543 -164.901
LeftHand  -0.25398 0.0180481 5.50724
RightShoulder  2.71956 4.3638 28.5633
RightArm  -19.4802 -15.491 40.7925
RightForeArm  166.041 49.4565 168.151
RightHand  -0.0682453 -7.66007 -2.32013
LeftUpLeg  -9.45112 4.17672 3.71859
LeftLeg  4.96465 -3.54545 -2.56953
LeftFoot  3.98279 0.488911 -3.81452
LeftToes  1.06247e-005 4.65869e-005 -8.65511e-006
481
root  12.7693 40.5903 9.35457 179.02 67.7574 177.139
RightUpLeg  -3.41351 -12.8471 -8.90717
RightLeg  10.4999 -27.1601 1.74583
RightFoot  -2.46798 -0.157671 1.82306
RightToes  0.000481921 0.542163 -0.142578
Spine  11.8785 0.203423 1.12831
Spine1  -2.96258 0.0216114 1.71544
HEad  8.66929 -17.8734 5.4566
LeftShoulder1  6.58625 -10.7142 -40.0633
LeftArm  7.95231 2.22492 -38.243
LeftForeArm  177.465 -58.3949 -164.475
LeftHand  -0.25398 0.0180481 5.50724
RightShoulder  2.55024 4.0982 27.5134
RightArm  -25.9819 -2.45478 33.5349
RightForeArm  169.85 59.172 163.346
RightHand  -0.509001 -12.6928 6.86539
LeftUpLeg  -9.42514 4.04085 3.59604
LeftLeg  4.61783 -1.43381 -2.51705
LeftFoot  4.02655 0.479935 -3.73812
LeftToes  1.06247e-005 4.65869e-005 -8.65511e-006
482
root  12.383 40.5926 9.15095 176.995 73.5633 175.424
RightUpLeg  -5.45473 -12.774 -8.70865
RightLeg  11.2701 -21.5258 0.921482
RightFoot  -1.43117 -0.0930663 0.965628
RightToes  0.000481921 0.542163 -0.142578
Spine  14.6287 2.57137 11.6667
Spine1  -3.97948 5.80286 -12.7522
HEad  8.08656 -21.6215 7.61391
LeftShoulder1  6.70507 -10.9033 -40.271
LeftArm  8.32291 3.41102 -35.6856
LeftForeArm  178.639 -57.0367 -165.323
LeftHand  -0.25398 0.0180481 5.50724
RightShoulder  2.24323 4.00732 23.6895
RightArm  -33.4621 16.4448 27.4734
RightForeArm  128.662 76.8453 111.796
RightHand  -0.635916 -11.224 9.65991
LeftUpLeg  -8.49273 4.65914 3.66336
LeftLeg  4.5146 3.89889 -2.74846
LeftFoot  3.66673 0.395932 -3.17228
LeftToes  1.06247e-005 4.65869e-005 -8.65511e-006
483
root  12.0272 40.5786 8.92033 163.903 81.8316 162.485
RightUpLeg  -8.36885 -12.4802 -8.20101
RightLeg  12.0324 -13.5613 0.14552
RightFoot  -0.304018 -0.0050617 0.0299231
RightToes  0.000481921 0.542163 -0.142578
Spine  18.1723 4.56554 19.9997
Spine1  -4.45385 11.1643 -25.1649
HEad  8.04903 -22.0711 6.6285
LeftShoulder1  6.6334 -10.9514 -39.6524
LeftArm  5.46807 8.03874 -32.3954
LeftForeArm  179.526 -54.4608 -166.706
LeftHand  -0.25398 0.0180481 5.50724
RightShoulder  1.65587 3.82293 15.8146
RightArm  -43.2314 37.4569 23.628
RightForeArm  34.7574 50.2962 8.50048
RightHand  -0.0272505 -1.49246 0.734558
LeftUpLeg  -7.20252 5.92344 3.89593
LeftLeg  4.42598 11.0779 -3.51334
LeftFoot  2.98146 0.325942 -2.7408
LeftToes  1.06247e-005 4.65869e-005 -8.65511e-006
484
root  11.8765 40.5815 8.74988 116.36 87.2864 114.564
RightUpLeg  -10.6016 -11.2409 -7.72467
RightLeg  11.7818 -8.07381 0.204705
RightFoot  0.736503 0.0473149 -0.403831
RightToes  0.000481921 0.542163 -0.142578
Spine  20.7688 6.13051 23.492
Spine1  -5.14012 14.5566 -31.325
HEad  7.76308 -20.8649 4.66297
LeftShoulder1  6.35667 -10.7233 -38.5005
LeftArm  1.39941 15.8098 -30.5092
LeftForeArm  -179.987 -51.8066 -167.934
LeftHand  -0.25398 0.0180481 5.50724
RightShoulder  1.00227 2.92223 8.09662
RightArm  -51.6062 51.2774 19.9998
RightForeArm  31.9751 15.9287 0.611188
RightHand  -0.672113 5.35951 -8.05948
LeftUpLeg  -6.20734 6.93439 4.27164
LeftLeg  3.75794 16.7818 -4.58881
LeftFoot  2.39924 0.349065 -3.01895
LeftToes  1.06247e-005 4.65869e-005 -8.65511e-006
485
root  11.9926 40.6293 8.67504 69.2459 87.5194 66.5761
RightUpLeg  -11.142 -10.3022 -7.48733
RightLeg  10.4912 -6.98624 0.821305
RightFoot  1.40927 0.038781 -0.261823
RightToes  0.000481921 0.542163 -0.142578
Spine  20.3325 6.95041 22.4898
Spine1  -5.7555 14.8411 -30.5543
HEad  7.34798 -18.9925 4.60704
LeftShoulder1  6.17799 -10.571 -37.7487
LeftArm  -2.75276 26.0684 -30.5738
LeftForeArm  -179.558 -49.0681 -169.052
LeftHand  -0.25398 0.0180481 5.50724
RightShoulder  0.71098 1.43749 6.97823
RightArm  -43.5269 53.2321 20.2304
RightForeArm  25.7195 16.9662 1.14751
RightHand  -1.10745 6.60097 -11.2738
LeftUpLeg  -6.09569 6.97522 4.58662
LeftLeg  2.73484 18.676 -5.05875
LeftFoot  2.25776 0.408794 -3.54267
LeftToes  1.06247e-005 4.65869e-005 -8.65511e-006
486
root  12.2585 40.6852 8.65434 106.156 88.0583 102.994
RightUpLeg  -10.2205 -9.90557 -7.36062
RightLeg  9.25784 -8.77028 1.20583
RightFoot  1.51257 0.00302707 0.0658275
RightToes  0.000481921 0.542163 -0.142578
Spine  17.6408 6.48555 18.7358
Spine1  -5.32527 12.68 -25.4263
HEad  7.38181 -16.3038 6.25955
LeftShoulder1  6.32912 -10.8982 -37.7954
LeftArm  -7.44433 36.0863 -31.9793
LeftForeArm  -178.873 -45.9637 -170.205
LeftHand  -0.25398 0.0180481 5.50724
RightShoulder  0.872554 0.979032 12.2456
RightArm  -33.3243 44.271 25.8915
RightForeArm  30.213 48.3211 12.74
RightHand  -0.696165 2.33618 -10.1486
LeftUpLeg  -6.3317 6.52649 4.70069
LeftLeg  2.33402 17.6661 -4.5721
LeftFoot  2.33046 0.398416 -3.44172
LeftToes  1.06247e-005 4.65869e-005 -8.65511e-006
487
root  12.5228 40.6965 8.63025 142.772 87.6354 140.131
RightUpLeg  -8.9414 -10.2676 -7.47402
RightLeg  9.34078 -9.64354 1.13895
RightFoot  0.997372 -0.0125842 0.178177
RightToes  0.000481921 0.542163 -0.142578
Spine  15.258 5.02371 14.5096
Spine1  -3.79238 9.8686 -20.0727
HEad  7.92942 -12.7783 7.11485
LeftShoulder1  6.63732 -11.3498 -38.5085
LeftArm  -11.6661 41.3236 -32.9232
LeftForeArm  -178.265 -43.1688 -171.146
LeftHand  -0.25398 0.0180481 5.50724
RightShoulder  1.40844 2.17338 18.2355
RightArm  -26.2708 29.9626 33.8811
RightForeArm  69.972 78.5377 57.3315
RightHand  0.00575549 -6.28861 -4.9971
LeftUpLeg  -5.88903 6.12679 4.56521
LeftLeg  2.85289 16.7978 -3.89422
LeftFoot  2.15566 0.310743 -2.7351
LeftToes  1.06247e-005 4.65869e-005 -8.65511e-006
488
root  12.7519 40.6677 8.58241 123.131 87.624 121.462
RightUpLeg  -8.15213 -11.2707 -8.00571
RightLeg  10.421 -8.12547 0.932178
RightFoot  0.164598 -0.017385 0.184284
RightToes  0.000481921 0.542163 -0.142578
Spine  14.0628 3.53659 11.3269
Spine1  -2.27804 7.58165 -16.5191
HEad  8.68628 -8.70549 5.79625
LeftShoulder1  6.69427 -11.1122 -39.5771
LeftArm  -12.8699 39.5832 -31.2051
LeftForeArm  -178.887 -41.4961 -171.609
LeftHand  -0.25398 0.0180481 5.50724
RightShoulder  2.15117 3.59351 24.1256
RightArm  -21.8638 14.6358 41.8628
RightForeArm  164.571 70.4571 153.464
RightHand  -0.0196432 -10.0589 -1.08206
LeftUpLeg  -4.73626 6.06107 4.19565
LeftLeg  3.60369 17.3544 -3.63923
LeftFoot  1.68108 0.236139 -2.15937
LeftToes  1.06247e-005 4.65869e-005 -8.65511e-006
489
root  12.9728 40.6371 8.49742 80.9836 87.5045 80.1431
RightUpLeg  -7.59634 -11.7535 -8.61732
RightLeg  11.1509 -6.1105 0.914763
RightFoot  -0.505781 -0.0456264 0.445524
RightToes  0.000481921 0.542163 -0.142578
Spine  13.0905 2.28649 8.59951
Spine1  -1.23744 5.45358 -12.8176
HEad  9.69924 -3.64538 2.87407
LeftShoulder1  6.39842 -10.0658 -40.846
LeftArm  -12.3006 32.9858 -28.6073
LeftForeArm  179.097 -41.1393 -171.589
LeftHand  -0.25398 0.0180481 5.50724
RightShoulder  3.07237 4.73704 31.2879
RightArm  -18.6426 -0.51715 45.6656
RightForeArm  178.074 56.157 166.201
RightHand  -0.149182 -9.42855 2.42171
LeftUpLeg  -3.47925 6.21652 3.85192
LeftLeg  4.21962 18.5865 -3.53761
LeftFoot  1.01161 0.211576 -2.01296
LeftToes  1.06247e-005 4.65869e-005 -8.65511e-006
